<?xml version="1.0" standalone="no"?>
<!DOCTYPE svg PUBLIC "-//W3C//DTD SVG 20010904//EN"
 "http://www.w3.org/TR/2001/REC-SVG-20010904/DTD/svg10.dtd">
<svg version="1.0" xmlns="http://www.w3.org/2000/svg"
 width="646.000000pt" height="646.000000pt" viewBox="0 0 646.000000 646.000000"
 preserveAspectRatio="xMidYMid meet">
<metadata>
Created by potrace 1.14, written by Peter Selinger 2001-2017
</metadata>
<g transform="translate(0.000000,646.000000) scale(0.100000,-0.100000)"
fill="#000000" stroke="none">
<path d="M5307 6428 c-9 -5 -17 -6 -17 -3 0 3 -9 1 -20 -5 -14 -8 -20 -8 -20
0 0 11 -55 12 -75 1 -18 -10 -35 -9 -41 0 -3 6 -11 5 -20 -2 -11 -9 -14 -9
-14 1 0 9 -4 10 -13 2 -7 -6 -26 -10 -42 -8 -17 2 -33 -1 -37 -7 -4 -7 -11 -7
-21 1 -7 7 -16 10 -18 7 -3 -2 -45 -7 -94 -11 -50 -3 -110 -8 -135 -9 -25 -2
-66 -5 -92 -7 -27 -1 -48 -6 -48 -11 0 -4 -9 -3 -20 3 -11 6 -26 7 -33 3 -16
-10 -62 -13 -356 -28 -57 -3 -107 -8 -112 -10 -4 -3 -10 -1 -14 5 -4 6 -12 7
-18 3 -23 -14 -107 -21 -107 -10 0 6 -10 2 -22 -9 -12 -10 -18 -14 -15 -7 4 6
3 14 -2 17 -5 3 -12 -1 -15 -9 -4 -12 -11 -13 -23 -7 -10 5 -27 6 -38 2 -11
-4 -25 -5 -31 -3 -7 2 -15 0 -18 -6 -5 -7 -15 -7 -31 -1 -14 5 -25 6 -25 1 0
-5 -11 -8 -25 -6 -14 1 -28 -1 -31 -6 -2 -5 -16 -4 -29 1 -14 5 -25 6 -25 2 0
-4 -18 -7 -40 -6 -21 0 -44 -3 -51 -7 -7 -4 -22 -3 -35 1 -12 5 -25 6 -28 2
-4 -3 -37 -7 -74 -8 -37 -1 -116 -5 -177 -8 -146 -8 -303 -16 -392 -19 -39 -1
-75 -5 -79 -9 -4 -4 -13 -3 -21 3 -7 6 -13 7 -13 2 0 -5 -27 -9 -60 -9 -33 1
-60 -1 -60 -4 0 -3 -21 -5 -48 -6 -26 0 -85 -4 -132 -9 -47 -4 -101 -8 -120
-9 -19 -1 -40 -5 -47 -9 -6 -4 -14 -3 -18 3 -4 6 -12 7 -18 3 -7 -4 -43 -8
-82 -10 -38 -1 -70 -3 -70 -4 0 -3 -109 -12 -285 -24 -108 -7 -192 -13 -245
-18 -27 -3 -84 -8 -125 -12 -41 -4 -86 -9 -100 -12 -14 -3 -50 -6 -80 -6 -30
-1 -58 -6 -61 -10 -3 -5 -27 -9 -52 -10 -26 -1 -47 -4 -47 -7 0 -3 -8 -6 -17
-7 -50 -4 -133 -24 -133 -33 0 -5 -8 -7 -17 -5 -10 1 -30 -6 -46 -17 -15 -11
-27 -17 -27 -14 0 2 -15 0 -32 -6 -39 -12 -73 -17 -153 -22 -94 -5 -178 -16
-208 -28 -27 -11 -76 -88 -56 -88 6 0 7 -6 3 -12 -10 -16 -11 -108 -2 -108 4
0 4 -10 0 -22 -7 -21 -8 -60 -2 -73 6 -12 6 -31 0 -40 -9 -14 -7 -167 3 -182
4 -6 3 -14 -1 -17 -5 -3 -8 -90 -7 -193 0 -103 -2 -195 -7 -204 -4 -9 -5 -19
-2 -22 5 -5 8 -151 4 -182 -1 -10 0 -129 3 -370 1 -60 5 -115 10 -122 4 -6 4
-14 -1 -17 -8 -5 -9 -195 -1 -212 3 -5 5 -62 5 -126 -1 -65 1 -118 4 -118 5 0
4 -73 0 -95 -1 -5 -1 -12 0 -15 1 -3 4 -41 6 -85 1 -44 3 -80 4 -80 2 0 9
-153 13 -260 1 -33 6 -65 10 -72 4 -6 3 -14 -3 -18 -6 -4 -8 -11 -4 -16 3 -6
8 -56 10 -112 4 -108 12 -239 15 -247 5 -16 3 -47 -4 -62 -4 -10 -4 -18 1 -18
5 0 8 -21 7 -47 -1 -27 1 -52 3 -56 2 -5 5 -46 7 -90 1 -45 3 -82 5 -82 1 0 4
-38 5 -85 1 -47 6 -128 9 -180 4 -52 9 -149 12 -215 7 -130 11 -190 14 -190 2
0 7 -104 14 -291 2 -61 7 -135 11 -165 3 -30 7 -91 9 -137 2 -46 6 -85 9 -88
3 -3 1 -19 -3 -35 -6 -18 -5 -27 1 -23 6 3 7 -7 4 -26 -8 -43 -8 -44 -5 -52 6
-20 5 -34 -5 -40 -7 -5 -7 -11 0 -15 16 -12 17 -34 3 -51 -9 -11 -9 -14 -1 -9
9 6 11 -2 9 -28 -1 -20 2 -35 8 -35 6 0 4 -5 -4 -10 -8 -5 -10 -10 -3 -10 13
0 12 -18 -1 -39 -7 -10 -6 -12 4 -6 10 6 12 3 8 -13 -4 -12 -2 -22 3 -22 6 0
5 -9 -2 -21 -8 -15 -8 -19 0 -15 7 5 11 -10 12 -46 1 -29 2 -68 3 -85 0 -18 3
-33 6 -33 3 0 6 -21 6 -48 3 -103 16 -211 27 -229 5 -8 4 -13 -2 -13 -25 0
-10 -59 24 -96 19 -22 35 -42 35 -46 0 -5 6 -8 13 -8 8 0 20 -11 27 -24 7 -14
20 -28 29 -32 24 -11 269 -24 286 -15 16 9 37 12 88 14 26 0 47 4 47 7 0 3 12
5 28 6 29 1 147 12 197 19 17 2 63 5 103 7 39 1 72 5 72 8 0 3 39 6 88 7 81 2
184 5 657 19 105 3 225 7 267 8 42 1 80 5 84 8 4 4 15 3 26 -3 10 -5 24 -7 31
-2 6 4 57 8 112 9 147 3 350 13 430 20 39 4 102 7 140 8 39 1 76 5 83 9 7 5
12 3 12 -5 0 -9 3 -9 10 2 7 11 10 11 10 2 0 -10 5 -10 20 -2 14 8 20 8 20 0
0 -7 5 -8 13 -3 17 11 837 13 837 1 0 -5 7 -5 18 0 21 11 133 8 152 -3 9 -5
11 -4 6 3 -4 7 -2 12 3 12 6 0 11 -4 11 -10 0 -6 9 -6 23 -2 20 8 40 8 52 2
13 -7 52 -5 68 2 9 5 17 5 17 0 0 -5 46 -10 103 -11 56 -1 128 -4 160 -5 31
-1 57 2 57 7 0 4 5 5 11 2 6 -4 36 -6 67 -5 31 1 74 2 95 2 20 -1 37 3 37 7 0
4 14 8 32 9 17 2 36 6 42 11 6 5 31 8 56 7 25 -1 48 1 51 6 3 4 27 10 55 13
102 11 167 37 204 82 31 37 80 112 80 122 0 6 4 11 9 11 9 0 43 80 48 115 2
10 7 22 11 25 4 3 13 17 19 33 10 21 10 27 0 27 -8 0 -7 3 3 10 8 5 15 19 17
32 6 54 16 88 25 88 5 0 7 4 3 9 -3 5 -1 13 5 16 8 5 7 11 -1 21 -6 8 -7 14
-2 14 5 0 10 12 11 27 1 15 5 29 10 32 4 3 7 26 7 51 -1 25 2 50 5 55 2 6 5
24 6 40 1 17 5 41 8 55 4 14 7 51 8 82 1 32 4 58 7 58 3 0 6 26 7 58 0 31 4
75 8 97 8 42 8 45 3 85 -2 14 -1 30 2 35 3 6 6 12 6 15 4 25 19 264 18 292 0
21 2 38 6 38 3 0 7 60 8 133 5 253 11 396 18 406 3 6 1 11 -5 11 -6 0 -8 5 -5
11 7 11 9 775 3 1079 -2 97 -7 181 -12 188 -4 7 -2 12 4 12 7 0 8 6 0 19 -7
14 -7 22 0 26 6 4 7 12 3 18 -4 7 -8 48 -8 92 0 44 -4 86 -8 93 -5 6 -5 12 0
12 4 0 7 15 6 32 -1 18 -2 33 -3 33 -1 0 -2 34 -4 75 -1 41 -5 80 -9 87 -4 6
-3 14 3 18 6 4 7 11 4 17 -5 8 -15 209 -15 328 -1 19 -3 42 -6 50 -11 27 -11
40 -3 40 5 0 7 10 4 23 -5 23 -12 127 -18 267 -10 206 -18 305 -27 308 -6 3
-5 9 1 17 7 9 9 23 4 37 -11 33 -12 81 -1 96 6 7 6 12 0 12 -6 0 -10 27 -11
61 0 33 -3 63 -6 66 -3 3 -1 13 4 23 5 10 6 21 2 24 -4 4 -7 19 -8 34 -1 15
-4 39 -7 55 -3 15 -1 27 4 27 6 0 7 6 3 12 -9 14 -11 41 -15 170 -2 48 -6 85
-9 83 -8 -5 -5 50 4 63 4 7 3 12 -2 12 -4 0 -8 34 -8 76 1 42 -2 78 -6 80 -4
2 -7 12 -7 22 0 33 -14 77 -32 104 -11 14 -19 31 -19 37 0 6 -4 11 -8 11 -5 0
-29 13 -53 30 -24 16 -55 30 -69 30 -15 0 -31 5 -37 11 -8 8 -13 8 -17 0 -8
-13 -46 -15 -46 -3 0 5 -21 8 -47 8 -27 -1 -60 2 -75 6 -15 3 -30 3 -32 -1 -5
-7 -60 -6 -117 3 -14 2 -33 0 -42 -6z"/>
</g>
</svg>
